<svg xmlns="http://www.w3.org/2000/svg" viewBox="0 0 900 640" role="img" aria-labelledby="title desc">
  <title id="title">Detalhe de cuidado facial</title>
  <desc id="desc">Toalha, máscara facial e flores em composição delicada.</desc>
  <defs>
    <linearGradient id="b" x1="0" y1="0" x2="1" y2="1">
      <stop offset="0" stop-color="#fffaf5"/>
      <stop offset="1" stop-color="#e9c4c7"/>
    </linearGradient>
    <radialGradient id="r" cx="35%" cy="28%" r="62%">
      <stop offset="0" stop-color="#ffffff"/>
      <stop offset="1" stop-color="#ffffff" stop-opacity="0"/>
    </radialGradient>
    <filter id="s" x="-20%" y="-20%" width="140%" height="140%">
      <feDropShadow dx="0" dy="18" stdDeviation="18" flood-color="#8d5362" flood-opacity="0.18"/>
    </filter>
  </defs>
  <rect width="900" height="640" fill="url(#b)"/>
  <rect width="900" height="640" fill="url(#r)"/>
  <g filter="url(#s)">
    <rect x="94" y="360" width="520" height="124" rx="62" fill="#fff7ed"/>
    <rect x="136" y="396" width="436" height="52" rx="26" fill="none" stroke="#e0c7bc" stroke-width="2"/>
  </g>
  <g filter="url(#s)" transform="translate(446 118)">
    <rect x="0" y="74" width="174" height="276" rx="54" fill="#ecdfd2"/>
    <rect x="42" y="0" width="90" height="96" rx="30" fill="#c98092"/>
    <rect x="52" y="160" width="74" height="12" rx="6" fill="#fff" opacity="0.55"/>
    <rect x="58" y="188" width="62" height="10" rx="5" fill="#fff" opacity="0.38"/>
  </g>
  <g transform="translate(206 144)" filter="url(#s)">
    <circle cx="116" cy="116" r="112" fill="#fffaf5" opacity="0.84"/>
    <circle cx="116" cy="116" r="82" fill="none" stroke="#d7b3ae" stroke-width="2"/>
    <path d="M74 110 C104 90 132 90 162 112" fill="none" stroke="#bd607b" stroke-opacity="0.36" stroke-width="5" stroke-linecap="round"/>
  </g>
  <g transform="translate(612 342)">
    <path d="M0 88 C44 42 76 12 128 0" fill="none" stroke="#576d5a" stroke-width="7" stroke-linecap="round"/>
    <ellipse cx="132" cy="0" rx="30" ry="18" fill="#f2b9c4" transform="rotate(-14 132 0)"/>
    <ellipse cx="164" cy="20" rx="28" ry="18" fill="#f6ccd4" transform="rotate(24 164 20)"/>
    <ellipse cx="144" cy="-22" rx="22" ry="30" fill="#dfa0ad"/>
  </g>
</svg>
