<svg xmlns="http://www.w3.org/2000/svg" viewBox="0 0 1200 760" role="img" aria-labelledby="title desc">
  <title id="title">Sala de cuidado do Ateliê Flor</title>
  <desc id="desc">Ambiente sereno de estética com maca, luz suave e detalhes naturais.</desc>
  <defs>
    <linearGradient id="wall" x1="0" y1="0" x2="1" y2="1">
      <stop offset="0" stop-color="#fffaf5"/>
      <stop offset="0.55" stop-color="#ead5ce"/>
      <stop offset="1" stop-color="#bd8b91"/>
    </linearGradient>
    <linearGradient id="floor" x1="0" y1="0" x2="0" y2="1">
      <stop offset="0" stop-color="#d8b9b1"/>
      <stop offset="1" stop-color="#6b4752"/>
    </linearGradient>
    <filter id="sh" x="-20%" y="-20%" width="140%" height="140%">
      <feDropShadow dx="0" dy="24" stdDeviation="22" flood-color="#5b3945" flood-opacity="0.22"/>
    </filter>
  </defs>
  <rect width="1200" height="760" fill="url(#wall)"/>
  <path d="M0 502 C260 450 530 456 800 520 C970 560 1078 542 1200 482 V760 H0 Z" fill="url(#floor)" opacity="0.42"/>
  <rect x="96" y="84" width="318" height="420" rx="160" fill="#fffaf5" opacity="0.42"/>
  <g filter="url(#sh)">
    <rect x="246" y="444" width="700" height="108" rx="54" fill="#fff7ed"/>
    <rect x="298" y="486" width="594" height="34" rx="17" fill="#e8d0c7"/>
  </g>
  <g filter="url(#sh)">
    <rect x="812" y="210" width="160" height="246" rx="48" fill="#f7eee7"/>
    <rect x="850" y="160" width="84" height="82" rx="28" fill="#bd607b"/>
    <rect x="844" y="314" width="94" height="12" rx="6" fill="#bd607b" opacity="0.25"/>
    <rect x="858" y="344" width="66" height="10" rx="5" fill="#576d5a" opacity="0.22"/>
  </g>
  <g transform="translate(158 402)">
    <path d="M0 104 C74 50 112 16 176 0" fill="none" stroke="#576d5a" stroke-width="8" stroke-linecap="round"/>
    <ellipse cx="184" cy="-2" rx="34" ry="20" fill="#f0adb9" transform="rotate(-18 184 -2)"/>
    <ellipse cx="218" cy="24" rx="30" ry="20" fill="#fad3d9" transform="rotate(22 218 24)"/>
  </g>
</svg>
